# xmcd
#
# Track frame offsets: 
#        25650
#        60788
#        88125
#        118050
#        145875
#        172275
#        194325
#        212250
#        221888
#        257550
#
# Disc length: 3779 seconds
#
# Revision: 1
# Processed by: cddbd v1.5.2PL0 Copyright (c) Steve Scherf et al.
# Submitted via: ExactAudioCopy v0.95b3
#
DISCID=9c0d6d0a
DTITLE=Ochre - Lemodie
DYEAR=2006
DGENRE=IDM
TTITLE0=111
TTITLE1=Beneath Fleeting Visions
TTITLE2=Sosacharo
TTITLE3=Infotain Me
TTITLE4=Anomie
TTITLE5=Open Top
TTITLE6=Lifewish
TTITLE7=Oneirist
TTITLE8=Bluebottles
TTITLE9=Vegas
EXTD=YEAR: 2006
EXTT0=
EXTT1=
EXTT2=
EXTT3=
EXTT4=
EXTT5=
EXTT6=
EXTT7=
EXTT8=
EXTT9=
PLAYORDER=
